# Blender v3.5.1 OBJ File: 'cross_minus.blend'
# www.blender.org
o cross_minus_Cube.007
v 117.500000 -4.000000 -17.499990
v 117.500000 -4.000000 -9.499990
v 117.500000 -4.000000 9.499990
v 117.500000 -4.000000 17.499990
v 117.500000 -1.000000 17.499992
v 117.500000 -1.000000 -17.499992
v 117.500000 -1.000000 -9.500010
v 117.500000 -1.000000 9.500000
v 98.499985 -4.000000 -17.499989
v 98.499992 -4.000000 -9.499989
v 98.499992 -4.000000 9.499989
v 98.499992 -4.000000 17.499989
v 90.500008 -1.000000 17.499979
v 90.500000 -1.000000 -17.499992
v 90.500000 -1.000000 -9.500010
v 90.500008 -1.000000 9.500000
v 90.500008 -4.000000 -17.499987
v 90.500008 -4.000000 -9.499987
v 90.500008 -4.000000 9.499987
v 90.500008 -4.000000 17.499987
v 125.499962 -1.000000 17.499992
v 125.499977 -1.000000 -17.499992
v 125.499977 -1.000000 -9.500010
v 125.499977 -1.000000 9.500000
v 125.499977 -4.000000 -17.499990
v 125.499977 -4.000000 -9.499992
v 125.499977 -4.000000 9.499992
v 125.499977 -4.000000 17.499990
v 98.499992 -1.000000 17.499979
v 98.499985 -1.000000 -17.499992
v 98.499985 -1.000000 -9.500010
v 98.499992 -1.000000 9.500000
v 88.999992 -4.000000 -18.999989
v 89.000008 -4.000000 18.999989
v 215.750000 -4.000000 19.000008
v 215.750000 -4.000000 17.500004
v 215.750000 -4.000000 9.500006
v 9.250017 -4.000000 8.000007
v 215.750000 -4.000000 6.000008
v 215.750000 -1.000000 17.500004
v 215.750000 -1.000000 9.500006
v 0.250000 -4.000000 18.999973
v 0.250000 -4.000000 17.499971
v 0.250000 -4.000000 9.499972
v 0.250000 -4.000000 6.500008
v 0.250000 -1.000000 9.499993
v 0.250000 -1.000000 17.499971
v 224.749969 -4.000000 7.500008
v 215.750000 -4.000000 -19.000008
v 215.750000 -4.000000 -17.500004
v 215.750000 -4.000000 -9.500006
v 9.250017 -4.000000 -8.000007
v 215.750000 -4.000000 -6.000008
v 215.750000 -1.000000 -17.500004
v 215.750000 -1.000000 -9.500006
v 0.250000 -4.000000 -18.999973
v 0.250000 -4.000000 -17.499971
v 0.250000 -4.000000 -9.499972
v 0.250000 -4.000000 -6.500008
v 0.250000 -1.000000 -9.499993
v 0.250000 -1.000000 -17.499971
v 224.749969 -4.000000 -7.500008
v 126.999962 -4.000000 -18.999994
v 126.999962 -4.000000 18.999994
v 127.000000 -4.000000 -107.750015
v 125.499992 -4.000000 -107.750015
v 117.500000 -4.000000 -107.750015
v 116.000000 -4.000000 98.749977
v 113.999992 -4.000000 -107.750015
v 125.499992 -1.000000 -107.750015
v 117.500000 -1.000000 -107.750015
v 126.999969 -4.000000 107.750000
v 125.499962 -4.000000 107.750000
v 117.499969 -4.000000 107.750000
v 114.500008 -4.000000 107.750000
v 117.499985 -1.000000 107.750000
v 125.499962 -1.000000 107.750000
v 115.500000 -4.000000 -116.750000
v 88.999977 -4.000000 -107.750015
v 90.499985 -4.000000 -107.750015
v 98.499985 -4.000000 -107.750015
v 99.999992 -4.000000 98.749977
v 101.999977 -4.000000 -107.750015
v 90.499985 -1.000000 -107.750015
v 98.499985 -1.000000 -107.750015
v 89.000015 -4.000000 107.750000
v 90.500023 -4.000000 107.750000
v 98.500023 -4.000000 107.750000
v 101.499985 -4.000000 107.750000
v 98.500000 -1.000000 107.750000
v 90.500023 -1.000000 107.750000
v 100.499977 -4.000000 -116.750000
v 152.639587 -0.875000 -18.999998
v 159.710678 -0.875000 -18.999992
v 126.999962 -0.875000 44.639629
v 126.999962 -0.875000 51.710709
v 126.999969 -0.875000 -44.639614
v 126.999969 -0.875000 -51.710690
v 63.360359 -0.875000 18.999979
v 56.289299 -0.875000 18.999979
v 89.000000 -0.875000 44.639614
v 88.999992 -0.875000 51.710674
v 63.360367 -0.875000 -18.999985
v 56.289299 -0.875000 -18.999977
v 88.999977 -0.875000 -44.639587
v 88.999977 -0.875000 -51.710655
v 152.639587 -0.875000 19.000004
v 159.710663 -0.875000 19.000000
v 152.639572 0.875000 19.000011
v 159.710663 0.875000 19.000000
v 89.000000 0.875000 44.639614
v 89.000000 0.875000 51.710678
v 63.360359 0.875000 18.999975
v 56.289299 0.875000 18.999979
v 152.639587 0.875000 -18.999992
v 159.710678 0.875000 -18.999992
v 63.360374 0.875000 -18.999981
v 56.289307 0.875000 -18.999981
v 126.999962 0.875000 44.639633
v 126.999962 0.875000 51.710709
v 126.999969 0.875000 -44.639614
v 126.999969 0.875000 -51.710690
v 88.999977 0.875000 -44.639587
v 88.999977 0.875000 -51.710655
v 117.500000 4.000000 -17.499990
v 117.500000 4.000000 -9.499990
v 117.500000 4.000000 9.499990
v 117.500000 4.000000 17.499990
v 117.500000 1.000000 17.499992
v 117.500000 1.000000 -17.499992
v 117.500000 1.000000 -9.500010
v 117.500000 1.000000 9.500000
v 126.999985 0.000000 -18.999990
v 98.499985 4.000000 -17.499989
v 98.499992 4.000000 -9.499989
v 98.499992 4.000000 9.499989
v 98.499992 4.000000 17.499989
v 90.500008 1.000000 17.499979
v 90.500000 1.000000 -17.499992
v 90.500000 1.000000 -9.500010
v 90.500008 1.000000 9.500000
v 90.500008 4.000000 -17.499987
v 90.500008 4.000000 -9.499987
v 90.500008 4.000000 9.499987
v 90.500008 4.000000 17.499987
v 125.499962 1.000000 17.499992
v 125.499977 1.000000 -17.499992
v 125.499977 1.000000 -9.500010
v 125.499977 1.000000 9.500000
v 125.499977 4.000000 -17.499990
v 125.499977 4.000000 -9.499992
v 125.499977 4.000000 9.499992
v 125.499977 4.000000 17.499990
v 98.499992 1.000000 17.499979
v 98.499985 1.000000 -17.499992
v 98.499985 1.000000 -9.500010
v 98.499992 1.000000 9.500000
v 88.999992 4.000000 -18.999989
v 89.000008 4.000000 18.999989
v 215.750000 4.000000 19.000008
v 215.750000 4.000000 17.500004
v 215.750000 4.000000 9.500006
v 9.250017 4.000000 8.000007
v 215.750000 4.000000 6.000008
v 215.750000 1.000000 17.500004
v 215.750000 1.000000 9.500006
v 0.250000 4.000000 18.999973
v 0.250000 4.000000 17.499971
v 0.250000 4.000000 9.499972
v 0.250000 4.000000 6.500008
v 0.250000 1.000000 9.499993
v 0.250000 1.000000 17.499971
v 224.749969 4.000000 7.500008
v 215.750000 0.000000 19.000008
v 9.250017 0.000000 8.000007
v 0.250000 0.000000 6.500008
v 0.250000 0.000000 18.999973
v 215.750000 0.000000 6.000008
v 224.749969 0.000000 7.500008
v 215.750000 4.000000 -19.000008
v 215.750000 4.000000 -17.500004
v 215.750000 4.000000 -9.500006
v 9.250017 4.000000 -8.000007
v 215.750000 4.000000 -6.000008
v 215.750000 1.000000 -17.500004
v 215.750000 1.000000 -9.500006
v 0.250000 4.000000 -18.999973
v 0.250000 4.000000 -17.499971
v 0.250000 4.000000 -9.499972
v 0.250000 4.000000 -6.500008
v 0.250000 1.000000 -9.499993
v 0.250000 1.000000 -17.499971
v 224.749969 4.000000 -7.500008
v 215.750000 0.000000 -19.000008
v 9.250017 0.000000 -8.000007
v 0.250000 0.000000 -6.500008
v 0.250000 0.000000 -18.999973
v 215.750000 0.000000 -6.000008
v 224.749969 0.000000 -7.500008
v 126.999962 4.000000 -18.999994
v 126.999962 4.000000 18.999994
v 88.999992 0.000000 18.999981
v 88.999985 0.000000 -18.999990
v 127.000000 4.000000 -107.750015
v 125.499992 4.000000 -107.750015
v 117.500000 4.000000 -107.750015
v 116.000000 4.000000 98.749977
v 113.999992 4.000000 -107.750015
v 125.499992 1.000000 -107.750015
v 117.500000 1.000000 -107.750015
v 126.999969 4.000000 107.750000
v 125.499962 4.000000 107.750000
v 117.499969 4.000000 107.750000
v 114.500008 4.000000 107.750000
v 117.499985 1.000000 107.750000
v 125.499962 1.000000 107.750000
v 115.500000 4.000000 -116.750000
v 127.000000 0.000000 -107.750015
v 116.000000 0.000000 98.749977
v 114.500008 0.000000 107.750000
v 126.999969 0.000000 107.750000
v 113.999992 0.000000 -107.750015
v 115.500000 0.000000 -116.750000
v 88.999977 4.000000 -107.750015
v 90.499985 4.000000 -107.750015
v 98.499985 4.000000 -107.750015
v 99.999992 4.000000 98.749977
v 101.999977 4.000000 -107.750015
v 90.499985 1.000000 -107.750015
v 98.499985 1.000000 -107.750015
v 89.000015 4.000000 107.750000
v 90.500023 4.000000 107.750000
v 98.500023 4.000000 107.750000
v 101.499985 4.000000 107.750000
v 98.500000 1.000000 107.750000
v 90.500023 1.000000 107.750000
v 100.499977 4.000000 -116.750000
v 88.999977 0.000000 -107.750015
v 99.999992 0.000000 98.749977
v 101.499985 0.000000 107.750000
v 89.000015 0.000000 107.750000
v 101.999977 0.000000 -107.750015
v 100.499977 0.000000 -116.750000
v 126.999969 0.000000 19.000000
v 152.639587 0.000000 -18.999996
v 152.639587 0.875000 -18.999998
v 159.710678 0.000000 -18.999996
v 159.710678 0.875000 -18.999992
v 126.999962 0.000000 44.639633
v 126.999962 0.875000 44.639629
v 126.999962 0.000000 51.710709
v 126.999962 0.875000 51.710709
v 126.999969 0.000000 -44.639614
v 126.999969 0.875000 -44.639614
v 126.999969 0.000000 -51.710690
v 126.999969 0.875000 -51.710690
v 63.360355 0.000000 18.999977
v 63.360359 0.875000 18.999979
v 56.289299 0.000000 18.999973
v 56.289299 0.875000 18.999979
v 88.999992 0.000000 44.639610
v 89.000000 0.875000 44.639614
v 89.000000 0.000000 51.710674
v 88.999992 0.875000 51.710674
v 63.360367 0.875000 -18.999985
v 63.360359 0.000000 -18.999979
v 56.289299 0.000000 -18.999979
v 56.289299 0.875000 -18.999977
v 88.999977 0.000000 -44.639587
v 88.999977 0.875000 -44.639587
v 88.999977 0.875000 -51.710655
v 88.999977 0.000000 -51.710648
v 152.639587 0.875000 19.000004
v 152.639587 0.000000 19.000002
v 159.710663 0.000000 19.000000
v 159.710663 0.875000 19.000000
v 152.639572 -0.875000 19.000011
v 159.710663 -0.875000 19.000000
v 89.000000 -0.875000 44.639614
v 89.000000 -0.875000 51.710678
v 63.360359 -0.875000 18.999975
v 56.289299 -0.875000 18.999979
v 152.639587 -0.875000 -18.999992
v 159.710678 -0.875000 -18.999992
v 63.360374 -0.875000 -18.999981
v 56.289307 -0.875000 -18.999981
v 126.999962 -0.875000 44.639633
v 126.999962 -0.875000 51.710709
v 126.999969 -0.875000 -44.639614
v 126.999969 -0.875000 -51.710690
v 88.999977 -0.875000 -44.639587
v 88.999977 -0.875000 -51.710655
vn -1.0000 -0.0000 -0.0000
vn 1.0000 -0.0000 0.0000
vn 0.0000 -1.0000 0.0000
vn 0.0000 1.0000 0.0000
vn -0.0000 0.0000 1.0000
vn 0.1644 0.0000 -0.9864
vn -0.1644 0.0000 0.9864
vn -0.0000 0.0000 -1.0000
vn 0.1644 0.0000 0.9864
vn -0.1644 0.0000 -0.9864
vn -0.9864 0.0000 -0.1644
vn 0.9864 0.0000 0.1644
vn 0.9864 0.0000 -0.1644
vn -0.9864 0.0000 0.1644
vn 0.7071 0.0000 -0.7071
vn 0.7071 0.0000 0.7071
vn -0.7071 -0.0000 -0.7071
vn -0.7071 0.0000 0.7071
s off
f 73//1 21//1 28//1
f 8//2 2//2 7//2
f 85//3 14//3 84//3
f 47//3 41//3 40//3
f 61//3 55//3 60//3
f 88//1 29//1 12//1
f 38//1 195//1 52//1
f 84//2 17//2 80//2
f 10//1 32//1 31//1
f 38//3 18//3 19//3
f 66//1 22//1 70//1
f 23//3 8//3 7//3
f 74//2 5//2 76//2
f 16//2 18//2 15//2
f 6//2 67//2 71//2
f 46//3 8//3 41//3
f 83//3 69//3 1//3
f 31//3 16//3 15//3
f 68//3 12//3 4//3
f 81//1 30//1 85//1
f 26//1 24//1 23//1
f 91//3 29//3 90//3
f 76//3 21//3 77//3
f 60//4 55//4 31//4
f 244//5 35//5 174//5
f 26//3 53//3 39//3
f 33//3 80//3 17//3
f 38//6 176//6 175//6
f 39//7 179//7 178//7
f 41//2 178//2 174//2
f 68//5 239//5 82//5
f 2//3 11//3 10//3
f 46//1 47//1 177//1
f 49//8 133//8 194//8
f 61//3 6//3 54//3
f 20//3 34//3 43//3
f 63//3 50//3 25//3
f 196//9 52//9 195//9
f 199//10 53//10 198//10
f 55//2 54//2 194//2
f 60//1 196//1 197//1
f 33//8 197//8 203//8
f 64//3 73//3 28//3
f 92//8 223//8 78//8
f 202//5 42//5 34//5
f 29//4 47//4 40//4
f 133//2 65//2 218//2
f 68//11 220//11 219//11
f 62//2 179//2 48//2
f 69//12 223//12 222//12
f 71//8 222//8 218//8
f 76//5 77//5 221//5
f 79//1 203//1 238//1
f 240//13 82//13 239//13
f 243//14 83//14 242//14
f 85//8 84//8 238//8
f 90//5 240//5 241//5
f 34//1 241//1 202//1
f 244//2 72//2 64//2
f 22//3 71//3 70//3
f 91//2 20//2 13//2
f 266//5 118//5 267//5
f 121//4 116//4 122//4
f 110//4 119//4 120//4
f 259//8 113//8 257//8
f 245//5 94//5 247//5
f 275//8 107//8 274//8
f 274//8 110//8 275//8
f 247//5 115//5 245//5
f 257//15 111//15 261//15
f 253//1 122//1 255//1
f 275//16 120//16 251//16
f 263//2 101//2 261//2
f 251//1 119//1 249//1
f 100//3 101//3 102//3
f 95//3 108//3 96//3
f 249//1 96//1 251//1
f 255//15 116//15 247//15
f 118//17 124//17 272//17
f 245//18 121//18 253//18
f 266//16 103//16 269//16
f 104//3 105//3 103//3
f 97//3 94//3 93//3
f 266//5 104//5 103//5
f 259//18 100//18 263//18
f 111//4 114//4 112//4
f 118//4 123//4 124//4
f 257//8 100//8 259//8
f 263//2 111//2 112//2
f 255//1 97//1 253//1
f 272//2 105//2 106//2
f 274//17 107//17 249//17
f 272//2 123//2 269//2
f 146//1 212//1 153//1
f 132//2 126//2 127//2
f 139//4 230//4 229//4
f 166//4 172//4 165//4
f 186//4 192//4 191//4
f 154//1 233//1 137//1
f 195//1 163//1 183//1
f 142//2 229//2 225//2
f 157//1 135//1 156//1
f 144//4 143//4 183//4
f 205//1 147//1 150//1
f 132//4 148//4 131//4
f 129//2 213//2 215//2
f 141//2 143//2 144//2
f 206//2 130//2 210//2
f 171//3 166//3 157//3
f 134//4 208//4 228//4
f 141//4 156//4 140//4
f 128//4 137//4 227//4
f 155//1 226//1 230//1
f 149//1 151//1 148//1
f 154//4 236//4 235//4
f 146//4 215//4 216//4
f 131//3 186//3 191//3
f 160//5 244//5 174//5
f 164//4 184//4 151//4
f 158//4 188//4 142//4
f 176//6 163//6 175//6
f 179//7 164//7 178//7
f 166//2 165//2 174//2
f 239//5 207//5 227//5
f 136//4 126//4 135//4
f 171//1 176//1 177//1
f 133//8 180//8 194//8
f 192//4 185//4 155//4
f 145//4 159//4 232//4
f 200//4 205//4 150//4
f 183//9 196//9 195//9
f 184//10 199//10 198//10
f 186//2 198//2 194//2
f 191//1 192//1 197//1
f 197//8 158//8 203//8
f 201//4 161//4 153//4
f 223//8 237//8 217//8
f 167//5 202//5 159//5
f 165//4 172//4 129//4
f 204//2 133//2 218//2
f 220//11 207//11 219//11
f 179//2 193//2 173//2
f 223//12 208//12 222//12
f 210//8 209//8 218//8
f 215//5 220//5 221//5
f 203//1 224//1 238//1
f 227//13 240//13 239//13
f 228//14 243//14 242//14
f 230//8 242//8 238//8
f 235//5 236//5 241//5
f 241//1 159//1 202//1
f 211//2 244//2 201//2
f 210//4 147//4 209//4
f 145//2 236//2 138//2
f 286//5 266//5 267//5
f 284//3 289//3 290//3
f 278//3 287//3 277//3
f 281//8 259//8 257//8
f 248//5 245//5 247//5
f 273//8 275//8 274//8
f 278//8 274//8 275//8
f 283//5 247//5 245//5
f 261//15 281//15 257//15
f 290//1 253//1 255//1
f 251//16 278//16 275//16
f 262//2 263//2 261//2
f 287//1 251//1 249//1
f 260//4 262//4 258//4
f 276//4 250//4 252//4
f 252//1 249//1 251//1
f 247//15 290//15 255//15
f 272//17 286//17 267//17
f 253//18 283//18 245//18
f 285//16 291//16 269//16
f 270//4 268//4 265//4
f 254//4 248//4 256//4
f 266//5 268//5 267//5
f 282//18 280//18 263//18
f 282//3 279//3 280//3
f 286//3 291//3 285//3
f 260//8 257//8 259//8
f 263//2 279//2 261//2
f 254//1 255//1 253//1
f 272//2 270//2 269//2
f 277//17 287//17 249//17
f 291//2 272//2 269//2
f 73//1 77//1 21//1
f 8//2 3//2 2//2
f 85//3 30//3 14//3
f 47//3 46//3 41//3
f 61//3 54//3 55//3
f 88//1 90//1 29//1
f 38//1 175//1 195//1
f 84//2 14//2 17//2
f 10//1 11//1 32//1
f 52//3 59//3 58//3
f 44//3 45//3 38//3
f 52//3 58//3 18//3
f 19//3 44//3 38//3
f 38//3 52//3 18//3
f 66//1 25//1 22//1
f 23//3 24//3 8//3
f 74//2 4//2 5//2
f 16//2 19//2 18//2
f 6//2 1//2 67//2
f 46//5 44//5 19//5
f 46//5 19//5 16//5
f 27//5 37//5 41//5
f 24//5 27//5 41//5
f 32//5 11//5 3//5
f 32//5 3//5 8//5
f 46//4 16//4 32//4
f 8//3 24//3 41//3
f 46//4 32//4 8//4
f 9//3 81//3 83//3
f 83//3 92//3 69//3
f 92//3 78//3 69//3
f 69//3 67//3 1//3
f 1//3 9//3 83//3
f 31//3 32//3 16//3
f 82//3 89//3 88//3
f 74//3 75//3 68//3
f 82//3 88//3 12//3
f 4//3 74//3 68//3
f 68//3 82//3 12//3
f 81//1 9//1 30//1
f 26//1 27//1 24//1
f 91//3 13//3 29//3
f 76//3 5//3 21//3
f 15//8 18//8 58//8
f 55//8 51//8 26//8
f 55//8 26//8 23//8
f 15//8 58//8 60//8
f 2//8 10//8 31//8
f 7//8 2//8 31//8
f 55//4 23//4 7//4
f 31//4 15//4 60//4
f 55//4 7//4 31//4
f 244//5 64//5 35//5
f 37//3 27//3 39//3
f 27//3 26//3 39//3
f 26//3 51//3 53//3
f 53//3 62//3 48//3
f 53//3 48//3 39//3
f 33//3 79//3 80//3
f 17//3 57//3 33//3
f 57//3 56//3 33//3
f 38//6 45//6 176//6
f 39//7 48//7 179//7
f 174//2 35//2 40//2
f 35//2 36//2 40//2
f 37//2 39//2 41//2
f 39//2 178//2 41//2
f 174//2 40//2 41//2
f 68//5 219//5 239//5
f 2//3 3//3 11//3
f 47//1 43//1 42//1
f 176//1 45//1 46//1
f 45//1 44//1 46//1
f 47//1 42//1 177//1
f 176//1 46//1 177//1
f 49//8 63//8 133//8
f 61//5 57//5 17//5
f 61//5 17//5 14//5
f 25//5 50//5 54//5
f 22//5 25//5 54//5
f 30//5 9//5 1//5
f 30//5 1//5 6//5
f 61//3 14//3 30//3
f 6//4 22//4 54//4
f 61//3 30//3 6//3
f 20//3 87//3 34//3
f 87//3 86//3 34//3
f 34//3 42//3 43//3
f 66//3 65//3 63//3
f 63//3 49//3 50//3
f 25//3 66//3 63//3
f 196//9 59//9 52//9
f 199//10 62//10 53//10
f 50//2 49//2 54//2
f 49//2 194//2 54//2
f 198//2 53//2 55//2
f 53//2 51//2 55//2
f 198//2 55//2 194//2
f 56//1 57//1 61//1
f 60//1 58//1 59//1
f 197//1 56//1 61//1
f 60//1 59//1 196//1
f 197//1 61//1 60//1
f 33//8 56//8 197//8
f 64//3 72//3 73//3
f 28//3 36//3 64//3
f 36//3 35//3 64//3
f 92//8 243//8 223//8
f 202//5 177//5 42//5
f 40//8 36//8 28//8
f 40//8 28//8 21//8
f 20//8 43//8 47//8
f 13//8 20//8 47//8
f 5//8 4//8 12//8
f 5//8 12//8 29//8
f 40//4 21//4 5//4
f 29//3 13//3 47//3
f 40//3 5//3 29//3
f 133//2 63//2 65//2
f 68//11 75//11 220//11
f 62//2 199//2 179//2
f 69//12 78//12 223//12
f 218//8 65//8 70//8
f 65//8 66//8 70//8
f 67//8 69//8 71//8
f 69//8 222//8 71//8
f 218//8 70//8 71//8
f 77//5 73//5 72//5
f 220//5 75//5 76//5
f 75//5 74//5 76//5
f 77//5 72//5 221//5
f 220//5 76//5 221//5
f 79//1 33//1 203//1
f 240//13 89//13 82//13
f 243//14 92//14 83//14
f 80//8 79//8 84//8
f 79//8 238//8 84//8
f 242//8 83//8 85//8
f 83//8 81//8 85//8
f 242//8 85//8 238//8
f 86//5 87//5 91//5
f 90//5 88//5 89//5
f 241//5 86//5 91//5
f 90//5 89//5 240//5
f 241//5 91//5 90//5
f 34//1 86//1 241//1
f 244//2 221//2 72//2
f 22//3 6//3 71//3
f 91//2 87//2 20//2
f 266//5 117//5 118//5
f 121//4 115//4 116//4
f 110//4 109//4 119//4
f 259//8 114//8 113//8
f 245//5 93//5 94//5
f 275//8 108//8 107//8
f 274//8 109//8 110//8
f 247//5 116//5 115//5
f 101//15 99//15 261//15
f 99//15 257//15 261//15
f 257//15 113//15 111//15
f 253//1 121//1 122//1
f 96//16 108//16 275//16
f 275//16 110//16 120//16
f 251//16 96//16 275//16
f 263//2 102//2 101//2
f 251//1 120//1 119//1
f 100//3 99//3 101//3
f 95//3 107//3 108//3
f 249//1 95//1 96//1
f 94//15 98//15 255//15
f 255//15 122//15 116//15
f 247//15 94//15 255//15
f 106//17 104//17 272//17
f 104//17 267//17 272//17
f 267//17 118//17 272//17
f 97//18 93//18 253//18
f 93//18 245//18 253//18
f 245//18 115//18 121//18
f 103//16 105//16 269//16
f 269//16 123//16 117//16
f 117//16 266//16 269//16
f 104//3 106//3 105//3
f 97//3 98//3 94//3
f 266//5 267//5 104//5
f 100//18 102//18 263//18
f 263//18 112//18 114//18
f 114//18 259//18 263//18
f 111//4 113//4 114//4
f 118//4 117//4 123//4
f 257//8 99//8 100//8
f 263//2 261//2 111//2
f 255//1 98//1 97//1
f 272//2 269//2 105//2
f 107//17 95//17 249//17
f 249//17 119//17 109//17
f 109//17 274//17 249//17
f 272//2 124//2 123//2
f 146//1 216//1 212//1
f 132//2 131//2 126//2
f 139//4 155//4 230//4
f 166//4 171//4 172//4
f 186//4 185//4 192//4
f 154//1 235//1 233//1
f 195//1 175//1 163//1
f 142//2 139//2 229//2
f 157//1 136//1 135//1
f 163//4 170//4 169//4
f 189//4 190//4 183//4
f 163//4 169//4 144//4
f 143//4 189//4 183//4
f 183//4 163//4 144//4
f 205//1 209//1 147//1
f 132//4 149//4 148//4
f 129//2 128//2 213//2
f 141//2 140//2 143//2
f 206//2 125//2 130//2
f 166//5 162//5 152//5
f 166//5 152//5 149//5
f 144//5 169//5 171//5
f 141//5 144//5 171//5
f 132//5 127//5 136//5
f 132//5 136//5 157//5
f 166//4 149//4 132//4
f 157//3 141//3 171//3
f 166//4 132//4 157//4
f 228//4 226//4 134//4
f 134//4 125//4 208//4
f 125//4 206//4 208//4
f 208//4 217//4 237//4
f 208//4 237//4 228//4
f 141//4 157//4 156//4
f 207//4 214//4 213//4
f 233//4 234//4 227//4
f 207//4 213//4 128//4
f 137//4 233//4 227//4
f 227//4 207//4 128//4
f 155//1 134//1 226//1
f 149//1 152//1 151//1
f 154//4 138//4 236//4
f 146//4 129//4 215//4
f 189//8 143//8 140//8
f 156//8 135//8 126//8
f 191//8 189//8 140//8
f 156//8 126//8 131//8
f 148//8 151//8 182//8
f 148//8 182//8 186//8
f 191//3 140//3 156//3
f 131//3 148//3 186//3
f 191//3 156//3 131//3
f 160//5 201//5 244//5
f 151//4 152//4 164//4
f 152//4 162//4 164//4
f 164//4 173//4 193//4
f 184//4 182//4 151//4
f 164//4 193//4 184//4
f 225//4 224//4 158//4
f 158//4 187//4 188//4
f 142//4 225//4 158//4
f 176//6 170//6 163//6
f 179//7 173//7 164//7
f 161//2 160//2 165//2
f 160//2 174//2 165//2
f 178//2 164//2 166//2
f 164//2 162//2 166//2
f 178//2 166//2 174//2
f 239//5 219//5 207//5
f 136//4 127//4 126//4
f 167//1 168//1 172//1
f 171//1 169//1 170//1
f 177//1 167//1 172//1
f 171//1 170//1 176//1
f 177//1 172//1 171//1
f 133//8 200//8 180//8
f 185//5 181//5 150//5
f 185//5 150//5 147//5
f 142//5 188//5 192//5
f 139//5 142//5 192//5
f 130//5 125//5 155//5
f 125//5 134//5 155//5
f 185//3 147//3 130//3
f 155//4 139//4 192//4
f 185//3 130//3 155//3
f 145//4 168//4 159//4
f 168//4 167//4 159//4
f 159//4 231//4 232//4
f 200//4 204//4 205//4
f 150//4 181//4 200//4
f 181//4 180//4 200//4
f 183//9 190//9 196//9
f 184//10 193//10 199//10
f 194//2 180//2 185//2
f 180//2 181//2 185//2
f 182//2 184//2 186//2
f 184//2 198//2 186//2
f 194//2 185//2 186//2
f 192//1 188//1 187//1
f 196//1 190//1 191//1
f 190//1 189//1 191//1
f 192//1 187//1 197//1
f 196//1 191//1 197//1
f 197//8 187//8 158//8
f 201//4 160//4 161//4
f 153//4 212//4 201//4
f 212//4 211//4 201//4
f 223//8 243//8 237//8
f 167//5 177//5 202//5
f 153//8 161//8 165//8
f 172//8 168//8 145//8
f 172//8 145//8 138//8
f 146//8 153//8 165//8
f 137//8 128//8 129//8
f 154//8 137//8 129//8
f 172//4 138//4 154//4
f 129//3 146//3 165//3
f 172//3 154//3 129//3
f 204//2 200//2 133//2
f 220//11 214//11 207//11
f 179//2 199//2 193//2
f 223//12 217//12 208//12
f 205//8 204//8 209//8
f 204//8 218//8 209//8
f 222//8 208//8 210//8
f 208//8 206//8 210//8
f 222//8 210//8 218//8
f 211//5 212//5 216//5
f 215//5 213//5 214//5
f 221//5 211//5 216//5
f 215//5 214//5 220//5
f 221//5 216//5 215//5
f 203//1 158//1 224//1
f 227//13 234//13 240//13
f 228//14 237//14 243//14
f 238//8 224//8 229//8
f 224//8 225//8 229//8
f 226//8 228//8 230//8
f 228//8 242//8 230//8
f 238//8 229//8 230//8
f 236//5 232//5 231//5
f 240//5 234//5 235//5
f 234//5 233//5 235//5
f 236//5 231//5 241//5
f 240//5 235//5 241//5
f 241//1 231//1 159//1
f 211//2 221//2 244//2
f 210//4 130//4 147//4
f 145//2 232//2 236//2
f 286//5 285//5 266//5
f 284//3 283//3 289//3
f 278//3 288//3 287//3
f 281//8 282//8 259//8
f 248//5 246//5 245//5
f 273//8 276//8 275//8
f 278//8 277//8 274//8
f 283//5 284//5 247//5
f 257//15 258//15 261//15
f 258//15 262//15 261//15
f 261//15 279//15 281//15
f 290//1 289//1 253//1
f 275//16 276//16 252//16
f 251//16 288//16 278//16
f 275//16 252//16 251//16
f 262//2 264//2 263//2
f 287//1 288//1 251//1
f 260//4 264//4 262//4
f 276//4 273//4 250//4
f 252//1 250//1 249//1
f 255//15 256//15 248//15
f 247//15 284//15 290//15
f 255//15 248//15 247//15
f 267//17 268//17 272//17
f 268//17 271//17 272//17
f 272//17 292//17 286//17
f 245//18 246//18 253//18
f 246//18 254//18 253//18
f 253//18 289//18 283//18
f 269//16 270//16 265//16
f 265//16 266//16 269//16
f 266//16 285//16 269//16
f 270//4 271//4 268//4
f 254//4 246//4 248//4
f 266//5 265//5 268//5
f 263//18 264//18 260//18
f 260//18 259//18 263//18
f 259//18 282//18 263//18
f 282//3 281//3 279//3
f 286//3 292//3 291//3
f 260//8 258//8 257//8
f 263//2 280//2 279//2
f 254//1 256//1 255//1
f 272//2 271//2 270//2
f 249//17 250//17 273//17
f 273//17 274//17 249//17
f 274//17 277//17 249//17
f 291//2 292//2 272//2
