# Blender v3.5.1 OBJ File: 'pier.blend'
# www.blender.org
o pier_Cube
v 7.499997 -4.000000 -47.499973
v 7.499997 -4.000000 47.499977
v -7.499999 -4.000000 47.499969
v -7.499994 -4.000000 -47.499992
v 7.500000 61.499992 -47.499950
v -7.499997 61.499992 -47.499977
v 7.499996 4.000000 35.499996
v 7.499995 55.999992 35.499996
v 7.499999 55.999992 -35.499996
v 7.499992 61.499992 47.500004
v 7.499999 4.000000 -35.499996
v -7.500000 61.499992 47.499962
v -7.499998 4.000000 35.499996
v -7.499995 4.000000 -35.499996
v -7.499997 55.999992 -35.499996
v -7.500000 55.999992 35.499996
v -7.499998 -4.000000 19.500000
v -7.499998 3.999998 19.500000
v -7.499995 -4.000000 -19.499998
v -7.499996 4.000000 -19.500002
v 7.499997 -4.000000 -19.499998
v 7.499998 4.000000 -19.500002
v 7.499997 -4.000000 19.500002
v 7.499997 3.999998 19.500000
vn 0.0000 -1.0000 -0.0000
vn 0.0000 0.0000 -1.0000
vn -0.0000 -0.0000 1.0000
vn 1.0000 0.0000 0.0000
vn -1.0000 0.0000 -0.0000
vn 0.0000 1.0000 -0.0000
s off
f 1//1 19//1 4//1
f 1//2 6//2 5//2
f 10//3 3//3 2//3
f 9//4 11//4 5//4
f 16//5 12//5 6//5
f 6//6 10//6 5//6
f 14//3 9//3 15//3
f 8//1 15//1 9//1
f 20//6 11//6 14//6
f 7//2 16//2 8//2
f 19//3 22//3 20//3
f 18//6 7//6 24//6
f 23//1 3//1 17//1
f 17//2 24//2 23//2
f 1//1 21//1 19//1
f 1//2 4//2 6//2
f 10//3 12//3 3//3
f 2//4 23//4 7//4
f 23//4 24//4 7//4
f 22//4 21//4 11//4
f 21//4 1//4 11//4
f 10//4 2//4 7//4
f 10//4 7//4 8//4
f 11//4 1//4 5//4
f 10//4 8//4 5//4
f 8//4 9//4 5//4
f 4//5 19//5 14//5
f 19//5 20//5 14//5
f 18//5 17//5 13//5
f 17//5 3//5 13//5
f 6//5 4//5 14//5
f 6//5 14//5 15//5
f 13//5 3//5 12//5
f 6//5 15//5 16//5
f 16//5 13//5 12//5
f 6//6 12//6 10//6
f 14//3 11//3 9//3
f 8//1 16//1 15//1
f 20//6 22//6 11//6
f 7//2 13//2 16//2
f 19//3 21//3 22//3
f 18//6 13//6 7//6
f 23//1 2//1 3//1
f 17//2 18//2 24//2
