# Blender v3.5.1 OBJ File: 'stop_minus.blend'
# www.blender.org
o stop_minus_Cube.004
v 215.750015 -4.000000 19.000010
v 215.750015 -4.000000 17.500006
v 215.750015 -4.000000 9.500007
v 9.250017 -4.000000 8.000007
v 215.750015 -4.000000 6.000009
v 215.750015 -1.000000 17.500006
v 215.750015 -1.000000 9.500007
v 0.250000 -4.000000 18.999975
v 0.250000 -4.000000 17.499971
v 0.250000 -4.000000 9.499973
v 0.250000 -4.000000 6.500008
v 0.250000 -1.000000 9.499994
v 0.250000 -1.000000 17.499971
v 224.750000 -4.000000 7.500009
v 107.999779 -4.000000 38.000000
v 128.000000 -4.000000 18.999996
v 87.999977 -4.000000 18.999990
v 97.999992 -4.000000 37.999996
v 118.000000 -4.000000 38.000000
v 215.750015 -4.000000 -19.000010
v 9.250018 -4.000000 -0.000000
v 215.750015 -4.000000 -17.500006
v 215.750015 -4.000000 -9.500007
v 9.250017 -4.000000 -8.000007
v 215.750015 -4.000000 -6.000009
v 215.750015 -1.000000 -17.500006
v 215.750015 -1.000000 -9.500007
v 0.250000 -4.000000 -18.999975
v 0.250000 -4.000000 -17.499971
v 0.250000 -4.000000 -9.499973
v 0.250000 -4.000000 -6.500008
v 0.250000 -1.000000 -9.499994
v 0.250000 -1.000000 -17.499971
v 224.750000 -4.000000 -7.500009
v 224.750000 -4.000000 -0.000000
v 107.999779 -4.000000 -19.000002
v 128.000000 -4.000000 -18.999996
v 87.999977 -4.000000 -18.999990
v 97.999992 -4.000000 -19.000000
v 118.000000 -4.000000 -19.000004
v 215.750015 4.000000 19.000010
v 215.750015 4.000000 17.500006
v 215.750015 4.000000 9.500007
v 9.250017 4.000000 8.000007
v 215.750015 4.000000 6.000009
v 215.750015 1.000000 17.500006
v 215.750015 1.000000 9.500007
v 0.250000 4.000000 18.999975
v 0.250000 4.000000 17.499971
v 0.250000 4.000000 9.499973
v 0.250000 4.000000 6.500008
v 0.250000 1.000000 9.499994
v 0.250000 1.000000 17.499971
v 224.750000 4.000000 7.500009
v 215.750015 0.000000 19.000010
v 9.250017 0.000000 8.000007
v 0.250000 0.000000 6.500008
v 0.250000 0.000000 18.999975
v 215.750015 0.000000 6.000009
v 224.750000 0.000000 7.500009
v 107.999779 4.000000 38.000000
v 108.000252 0.000000 38.000000
v 128.000000 4.000000 18.999996
v 127.999992 0.000000 18.999996
v 87.999977 4.000000 18.999990
v 88.000000 0.000000 18.999990
v 97.999992 4.000000 37.999996
v 97.999992 0.000000 37.999996
v 118.000000 4.000000 38.000000
v 117.999985 0.000000 38.000000
v 215.750015 4.000000 -19.000010
v 9.250018 4.000000 -0.000000
v 215.750015 4.000000 -17.500006
v 215.750015 4.000000 -9.500007
v 9.250017 4.000000 -8.000007
v 215.750015 4.000000 -6.000009
v 215.750015 1.000000 -17.500006
v 215.750015 1.000000 -9.500007
v 0.250000 4.000000 -18.999975
v 0.250000 4.000000 -17.499971
v 0.250000 4.000000 -9.499973
v 0.250000 4.000000 -6.500008
v 0.250000 1.000000 -9.499994
v 0.250000 1.000000 -17.499971
v 224.750000 4.000000 -7.500009
v 224.750000 4.000000 -0.000000
v 215.750015 0.000000 -19.000010
v 9.250017 0.000000 -0.000000
v 9.250017 0.000000 -8.000007
v 0.250000 0.000000 -6.500008
v 0.250000 0.000000 -18.999975
v 215.750015 0.000000 -6.000009
v 224.750000 0.000000 -0.000000
v 224.750000 0.000000 -7.500009
v 107.999779 4.000000 -19.000002
v 108.000252 0.000000 -19.000002
v 128.000000 4.000000 -18.999996
v 127.999992 0.000000 -18.999996
v 87.999977 4.000000 -18.999990
v 88.000000 0.000000 -18.999990
v 97.999992 4.000000 -19.000000
v 97.999992 0.000000 -19.000000
v 118.000000 4.000000 -19.000004
v 117.999985 0.000000 -19.000004
v 98.000008 3.999996 23.000000
v 98.000008 3.999993 30.000002
v 118.000000 4.000004 30.000002
v 118.000000 3.999996 23.000000
v 98.000008 13.999996 23.000000
v 98.000008 13.999992 30.000002
v 118.000000 14.000004 30.000002
v 118.000000 13.999996 23.000000
vn 0.0000 -1.0000 0.0000
vn -0.0000 0.0000 1.0000
vn 0.0000 0.0000 -1.0000
vn 0.1644 0.0000 -0.9864
vn -0.1644 0.0000 0.9864
vn 1.0000 0.0000 0.0000
vn -1.0000 0.0000 -0.0000
vn 0.8849 0.0000 0.4657
vn -0.8849 0.0000 0.4657
vn 0.1644 0.0000 0.9864
vn -0.1644 0.0000 -0.9864
vn 0.0000 1.0000 0.0000
s off
f 13//1 7//1 6//1
f 64//2 1//2 55//2
f 12//2 3//2 7//2
f 16//1 17//1 9//1
f 9//3 6//3 2//3
f 4//4 57//4 56//4
f 10//1 11//1 4//1
f 5//5 60//5 59//5
f 7//6 59//6 55//6
f 56//7 21//7 4//7
f 93//6 14//6 35//6
f 12//7 13//7 58//7
f 15//2 68//2 18//2
f 64//8 19//8 16//8
f 66//2 8//2 17//2
f 68//9 17//9 18//9
f 19//2 62//2 15//2
f 27//1 33//1 26//1
f 20//3 98//3 87//3
f 23//3 32//3 27//3
f 40//1 37//1 22//1
f 26//2 29//2 22//2
f 90//10 24//10 89//10
f 25//1 34//1 35//1
f 94//11 25//11 92//11
f 27//6 26//6 87//6
f 21//7 89//7 24//7
f 34//6 93//6 35//6
f 32//7 90//7 91//7
f 36//3 102//3 96//3
f 40//3 98//3 37//3
f 28//3 100//3 38//3
f 38//3 102//3 39//3
f 40//3 96//3 104//3
f 47//12 53//12 46//12
f 41//2 64//2 55//2
f 43//2 52//2 47//2
f 63//12 42//12 65//12
f 46//3 49//3 42//3
f 57//4 44//4 56//4
f 45//12 54//12 86//12
f 60//5 45//5 59//5
f 47//6 46//6 55//6
f 72//7 56//7 44//7
f 54//6 93//6 86//6
f 52//7 57//7 58//7
f 61//2 68//2 62//2
f 69//8 64//8 63//8
f 48//2 66//2 65//2
f 65//9 68//9 67//9
f 69//2 62//2 70//2
f 84//12 78//12 77//12
f 98//3 71//3 87//3
f 83//3 74//3 78//3
f 80//12 73//12 95//12
f 80//2 77//2 73//2
f 75//10 90//10 89//10
f 81//12 82//12 75//12
f 76//11 94//11 92//11
f 78//6 92//6 87//6
f 89//7 72//7 75//7
f 93//6 85//6 86//6
f 83//7 84//7 91//7
f 95//3 102//3 101//3
f 98//3 103//3 97//3
f 100//3 79//3 99//3
f 102//3 99//3 101//3
f 103//3 96//3 95//3
f 106//12 65//12 67//12
f 107//6 112//6 111//6
f 110//12 112//12 109//12
f 105//7 110//7 109//7
f 105//3 112//3 108//3
f 107//2 110//2 106//2
f 13//1 12//1 7//1
f 64//2 16//2 1//2
f 12//2 10//2 3//2
f 2//1 1//1 16//1
f 16//1 19//1 15//1
f 15//1 18//1 17//1
f 17//1 8//1 9//1
f 9//1 2//1 16//1
f 16//1 15//1 17//1
f 9//3 13//3 6//3
f 4//4 11//4 57//4
f 4//1 21//1 5//1
f 21//1 35//1 5//1
f 35//1 14//1 5//1
f 5//1 3//1 4//1
f 3//1 10//1 4//1
f 5//5 14//5 60//5
f 55//6 1//6 6//6
f 1//6 2//6 6//6
f 3//6 5//6 7//6
f 5//6 59//6 7//6
f 55//6 6//6 7//6
f 56//7 88//7 21//7
f 93//6 60//6 14//6
f 13//7 9//7 8//7
f 57//7 11//7 12//7
f 11//7 10//7 12//7
f 13//7 8//7 58//7
f 57//7 12//7 58//7
f 15//2 62//2 68//2
f 64//8 70//8 19//8
f 66//2 58//2 8//2
f 68//9 66//9 17//9
f 19//2 70//2 62//2
f 27//1 32//1 33//1
f 20//3 37//3 98//3
f 23//3 30//3 32//3
f 37//1 20//1 22//1
f 22//1 29//1 36//1
f 29//1 28//1 38//1
f 38//1 39//1 29//1
f 39//1 36//1 29//1
f 22//1 36//1 40//1
f 26//2 33//2 29//2
f 90//10 31//10 24//10
f 35//1 21//1 25//1
f 21//1 24//1 25//1
f 24//1 31//1 30//1
f 30//1 23//1 24//1
f 23//1 25//1 24//1
f 94//11 34//11 25//11
f 22//6 20//6 26//6
f 20//6 87//6 26//6
f 92//6 25//6 27//6
f 25//6 23//6 27//6
f 92//6 27//6 87//6
f 21//7 88//7 89//7
f 34//6 94//6 93//6
f 28//7 29//7 33//7
f 32//7 30//7 31//7
f 91//7 28//7 33//7
f 32//7 31//7 90//7
f 91//7 33//7 32//7
f 36//3 39//3 102//3
f 40//3 104//3 98//3
f 28//3 91//3 100//3
f 38//3 100//3 102//3
f 40//3 36//3 96//3
f 47//12 52//12 53//12
f 41//2 63//2 64//2
f 43//2 50//2 52//2
f 63//12 41//12 42//12
f 42//12 49//12 65//12
f 49//12 48//12 65//12
f 65//12 105//12 63//12
f 105//12 108//12 63//12
f 108//12 107//12 63//12
f 46//3 53//3 49//3
f 57//4 51//4 44//4
f 86//12 72//12 45//12
f 72//12 44//12 45//12
f 44//12 51//12 50//12
f 50//12 43//12 44//12
f 43//12 45//12 44//12
f 60//5 54//5 45//5
f 42//6 41//6 46//6
f 41//6 55//6 46//6
f 59//6 45//6 47//6
f 45//6 43//6 47//6
f 59//6 47//6 55//6
f 72//7 88//7 56//7
f 54//6 60//6 93//6
f 48//7 49//7 53//7
f 52//7 50//7 51//7
f 58//7 48//7 53//7
f 52//7 51//7 57//7
f 58//7 53//7 52//7
f 61//2 67//2 68//2
f 69//8 70//8 64//8
f 48//2 58//2 66//2
f 65//9 66//9 68//9
f 69//2 61//2 62//2
f 84//12 83//12 78//12
f 98//3 97//3 71//3
f 83//3 81//3 74//3
f 73//12 71//12 97//12
f 97//12 103//12 73//12
f 103//12 95//12 73//12
f 95//12 101//12 80//12
f 101//12 99//12 80//12
f 99//12 79//12 80//12
f 80//2 84//2 77//2
f 75//10 82//10 90//10
f 75//12 72//12 76//12
f 72//12 86//12 76//12
f 86//12 85//12 76//12
f 76//12 74//12 75//12
f 74//12 81//12 75//12
f 76//11 85//11 94//11
f 87//6 71//6 77//6
f 71//6 73//6 77//6
f 74//6 76//6 78//6
f 76//6 92//6 78//6
f 87//6 77//6 78//6
f 89//7 88//7 72//7
f 93//6 94//6 85//6
f 84//7 80//7 79//7
f 90//7 82//7 83//7
f 82//7 81//7 83//7
f 84//7 79//7 91//7
f 90//7 83//7 91//7
f 95//3 96//3 102//3
f 98//3 104//3 103//3
f 100//3 91//3 79//3
f 102//3 100//3 99//3
f 103//3 104//3 96//3
f 69//12 63//12 107//12
f 106//12 105//12 65//12
f 69//12 107//12 61//12
f 107//12 106//12 61//12
f 67//12 61//12 106//12
f 107//6 108//6 112//6
f 110//12 111//12 112//12
f 105//7 106//7 110//7
f 105//3 109//3 112//3
f 107//2 111//2 110//2
