# Blender v3.5.1 OBJ File: 'straight0_minus.blend'
# www.blender.org
o straight0_minus_Cube.004
v 431.750000 -4.000000 19.000010
v 431.750000 -4.000000 17.500006
v 431.750000 -4.000000 9.500007
v 9.250017 -4.000000 8.000007
v 431.750000 -4.000000 6.000009
v 431.750000 -1.000000 17.500006
v 431.750000 -1.000000 9.500007
v 0.250000 -4.000000 18.999975
v 0.250000 -4.000000 17.499971
v 0.250000 -4.000000 9.499973
v 0.250000 -4.000000 6.500008
v 0.250000 -1.000000 9.499994
v 0.250000 -1.000000 17.499971
v 440.750000 -4.000000 7.500009
v 431.750000 -4.000000 -19.000010
v 9.250018 -4.000000 -0.000000
v 431.750000 -4.000000 -17.500006
v 431.750000 -4.000000 -9.500007
v 9.250017 -4.000000 -8.000007
v 431.750000 -4.000000 -6.000009
v 431.750000 -1.000000 -17.500006
v 431.750000 -1.000000 -9.500007
v 0.250000 -4.000000 -18.999975
v 0.250000 -4.000000 -17.499971
v 0.250000 -4.000000 -9.499973
v 0.250000 -4.000000 -6.500008
v 0.250000 -1.000000 -9.499994
v 0.250000 -1.000000 -17.499971
v 440.750000 -4.000000 -7.500009
v 440.750000 -4.000000 -0.000000
v 431.750000 4.000000 19.000010
v 431.750000 4.000000 17.500006
v 431.750000 4.000000 9.500007
v 9.250017 4.000000 8.000007
v 431.750000 4.000000 6.000009
v 431.750000 1.000000 17.500006
v 431.750000 1.000000 9.500007
v 0.250000 4.000000 18.999975
v 0.250000 4.000000 17.499971
v 0.250000 4.000000 9.499973
v 0.250000 4.000000 6.500008
v 0.250000 1.000000 9.499994
v 0.250000 1.000000 17.499971
v 440.750000 4.000000 7.500009
v 431.750000 0.000000 19.000010
v 9.250017 0.000000 8.000007
v 0.250000 0.000000 6.500008
v 0.250000 0.000000 18.999975
v 431.750000 0.000000 6.000009
v 440.750000 0.000000 7.500009
v 431.750000 4.000000 -19.000010
v 9.250018 4.000000 -0.000000
v 431.750000 4.000000 -17.500006
v 431.750000 4.000000 -9.500007
v 9.250017 4.000000 -8.000007
v 431.750000 4.000000 -6.000009
v 431.750000 1.000000 -17.500006
v 431.750000 1.000000 -9.500007
v 0.250000 4.000000 -18.999975
v 0.250000 4.000000 -17.499971
v 0.250000 4.000000 -9.499973
v 0.250000 4.000000 -6.500008
v 0.250000 1.000000 -9.499994
v 0.250000 1.000000 -17.499971
v 440.750000 4.000000 -7.500009
v 440.750000 4.000000 -0.000000
v 431.750000 0.000000 -19.000010
v 9.250017 0.000000 -0.000000
v 9.250017 0.000000 -8.000007
v 0.250000 0.000000 -6.500008
v 0.250000 0.000000 -18.999975
v 431.750000 0.000000 -6.000009
v 440.750000 0.000000 -0.000000
v 440.750000 0.000000 -7.500009
vn 0.0000 -1.0000 0.0000
vn -0.0000 0.0000 1.0000
vn 0.0000 0.0000 -1.0000
vn 0.1644 0.0000 -0.9864
vn -0.1644 0.0000 0.9864
vn 1.0000 0.0000 0.0000
vn -1.0000 0.0000 -0.0000
vn 0.1644 0.0000 0.9864
vn -0.1644 0.0000 -0.9864
vn 1.0000 -0.0001 0.0000
vn 0.0000 1.0000 0.0000
vn 1.0000 0.0001 0.0000
s off
f 13//1 7//1 6//1
f 48//2 1//2 45//2
f 12//2 3//2 7//2
f 8//1 2//1 1//1
f 9//3 6//3 2//3
f 4//4 47//4 46//4
f 10//1 11//1 4//1
f 5//5 50//5 49//5
f 7//6 49//6 45//6
f 46//7 16//7 4//7
f 73//6 14//6 30//6
f 12//7 13//7 48//7
f 22//1 28//1 21//1
f 15//3 71//3 67//3
f 18//3 27//3 22//3
f 17//1 23//1 15//1
f 21//2 24//2 17//2
f 70//8 19//8 69//8
f 20//1 29//1 30//1
f 74//9 20//9 72//9
f 22//10 21//10 67//10
f 16//7 69//7 19//7
f 29//6 73//6 30//6
f 27//7 70//7 71//7
f 37//11 43//11 36//11
f 31//2 48//2 45//2
f 33//2 42//2 37//2
f 32//11 38//11 31//11
f 36//3 39//3 32//3
f 47//4 34//4 46//4
f 35//11 44//11 66//11
f 50//5 35//5 49//5
f 37//12 36//12 45//12
f 52//7 46//7 34//7
f 44//6 73//6 66//6
f 42//7 47//7 48//7
f 64//11 58//11 57//11
f 71//3 51//3 67//3
f 63//3 54//3 58//3
f 59//11 53//11 51//11
f 60//2 57//2 53//2
f 55//8 70//8 69//8
f 61//11 62//11 55//11
f 56//9 74//9 72//9
f 58//6 72//6 67//6
f 69//7 52//7 55//7
f 73//6 65//6 66//6
f 63//7 64//7 71//7
f 13//1 12//1 7//1
f 48//2 8//2 1//2
f 12//2 10//2 3//2
f 8//1 9//1 2//1
f 9//3 13//3 6//3
f 4//4 11//4 47//4
f 4//1 16//1 5//1
f 16//1 30//1 5//1
f 30//1 14//1 5//1
f 5//1 3//1 4//1
f 3//1 10//1 4//1
f 5//5 14//5 50//5
f 45//6 1//6 6//6
f 1//6 2//6 6//6
f 3//6 5//6 7//6
f 5//6 49//6 7//6
f 45//10 6//10 7//10
f 46//7 68//7 16//7
f 73//6 50//6 14//6
f 13//7 9//7 8//7
f 47//7 11//7 12//7
f 11//7 10//7 12//7
f 13//7 8//7 48//7
f 47//7 12//7 48//7
f 22//1 27//1 28//1
f 15//3 23//3 71//3
f 18//3 25//3 27//3
f 17//1 24//1 23//1
f 21//2 28//2 24//2
f 70//8 26//8 19//8
f 30//1 16//1 20//1
f 16//1 19//1 20//1
f 19//1 26//1 25//1
f 25//1 18//1 19//1
f 18//1 20//1 19//1
f 74//9 29//9 20//9
f 17//6 15//6 21//6
f 15//6 67//6 21//6
f 72//6 20//6 22//6
f 20//6 18//6 22//6
f 72//6 22//6 67//6
f 16//7 68//7 69//7
f 29//6 74//6 73//6
f 23//7 24//7 28//7
f 27//7 25//7 26//7
f 71//7 23//7 28//7
f 27//7 26//7 70//7
f 71//7 28//7 27//7
f 37//11 42//11 43//11
f 31//2 38//2 48//2
f 33//2 40//2 42//2
f 32//11 39//11 38//11
f 36//3 43//3 39//3
f 47//4 41//4 34//4
f 66//11 52//11 35//11
f 52//11 34//11 35//11
f 34//11 41//11 40//11
f 40//11 33//11 34//11
f 33//11 35//11 34//11
f 50//5 44//5 35//5
f 32//6 31//6 36//6
f 31//6 45//6 36//6
f 49//6 35//6 37//6
f 35//6 33//6 37//6
f 49//6 37//6 45//6
f 52//7 68//7 46//7
f 44//6 50//6 73//6
f 38//7 39//7 43//7
f 42//7 40//7 41//7
f 48//7 38//7 43//7
f 42//7 41//7 47//7
f 48//7 43//7 42//7
f 64//11 63//11 58//11
f 71//3 59//3 51//3
f 63//3 61//3 54//3
f 59//11 60//11 53//11
f 60//2 64//2 57//2
f 55//8 62//8 70//8
f 55//11 52//11 56//11
f 52//11 66//11 56//11
f 66//11 65//11 56//11
f 56//11 54//11 55//11
f 54//11 61//11 55//11
f 56//9 65//9 74//9
f 67//6 51//6 57//6
f 51//6 53//6 57//6
f 54//6 56//6 58//6
f 56//6 72//6 58//6
f 67//12 57//12 58//12
f 69//7 68//7 52//7
f 73//6 74//6 65//6
f 64//7 60//7 59//7
f 70//7 62//7 63//7
f 62//7 61//7 63//7
f 64//7 59//7 71//7
f 70//7 63//7 71//7
